<svg width="245" height="82" viewBox="0 0 245 82" fill="none" xmlns="http://www.w3.org/2000/svg">
<g clip-path="url(#clip0_16_224)">
<path fill-rule="evenodd" clip-rule="evenodd" d="M51.31 27.87L59.91 22.53V0L51.31 5.28L41.29 11.4L40.23 12.04V34.68L41.29 34.05L51.31 27.87Z" fill="white"/>
<path fill-rule="evenodd" clip-rule="evenodd" d="M25.91 31.65L8.02 20.77L0 15.89V58.66L8.02 63.52L25.91 74.41L35.88 80.6L36.98 81.24V38.47L35.88 37.78L25.91 31.65Z" fill="white"/>
<path fill-rule="evenodd" clip-rule="evenodd" d="M35.88 34.1L36.87 34.68V12.04L35.88 11.46L25.91 5.34L17.19 0V22.53L25.91 27.92L35.88 34.1Z" fill="white"/>
<path fill-rule="evenodd" clip-rule="evenodd" d="M51.31 31.71L41.29 37.84L40.23 38.47V81.24L41.29 80.6L51.31 74.41L69.15 63.58L77.22 58.66V15.89L69.15 20.81L51.31 31.71Z" fill="white"/>
<path fill-rule="evenodd" clip-rule="evenodd" d="M89.69 38.09C91.534 39.1847 93.6577 39.7165 95.8 39.62C98.0199 39.6863 100.194 38.9794 101.95 37.62C103.721 36.1346 104.946 34.1004 105.43 31.84L102.34 31.06C102.057 32.7677 101.204 34.3292 99.92 35.49C98.6886 36.5029 97.1339 37.0389 95.54 37C94.1543 37.0082 92.7935 36.6308 91.61 35.91C90.3629 35.1449 89.414 33.9773 88.92 32.6C88.3171 30.9375 88.0255 29.1781 88.06 27.41C88.0568 25.8901 88.3034 24.3799 88.79 22.94C89.2395 21.5474 90.1269 20.3373 91.32 19.49C92.6344 18.5945 94.2006 18.1425 95.79 18.2C97.1746 18.1459 98.5373 18.5578 99.66 19.37C100.797 20.3085 101.615 21.5769 102 23L105 22.28C104.485 20.2884 103.316 18.5276 101.68 17.28C99.9747 16.0525 97.9099 15.4264 95.81 15.5C93.8459 15.514 91.9181 16.0304 90.21 17C88.5037 17.9381 87.1254 19.3757 86.26 21.12C85.2937 23.0908 84.8168 25.2656 84.87 27.46C84.8545 29.6017 85.2729 31.7244 86.1 33.7C86.8246 35.4931 88.0764 37.0239 89.69 38.09Z" fill="white"/>
<path fill-rule="evenodd" clip-rule="evenodd" d="M114.56 29.51C113.702 29.6002 112.85 29.7438 112.01 29.94C111.274 30.1316 110.577 30.4496 109.95 30.88C109.334 31.2973 108.826 31.8563 108.47 32.51C108.096 33.2076 107.903 33.9883 107.91 34.78C107.89 35.4291 108.014 36.0746 108.271 36.6708C108.529 37.267 108.914 37.7993 109.4 38.23C110.604 39.2075 112.133 39.6934 113.68 39.59C114.759 39.5972 115.83 39.4075 116.84 39.03C117.962 38.5682 119 37.9227 119.91 37.12C119.974 37.8492 120.16 38.5625 120.46 39.23H123.46C123.124 38.6036 122.888 37.9289 122.76 37.23C122.609 35.5679 122.553 33.8985 122.59 32.23V28.36C122.612 27.481 122.565 26.6016 122.45 25.73C122.307 25.0186 121.998 24.3507 121.55 23.78C121.007 23.1849 120.318 22.7434 119.55 22.5C118.406 22.1242 117.204 21.9549 116 22C114.696 21.9779 113.397 22.1774 112.16 22.59C111.172 22.9144 110.292 23.5063 109.62 24.3C108.988 25.1598 108.557 26.151 108.36 27.2L111.16 27.6C111.331 26.6199 111.836 25.7293 112.59 25.08C113.492 24.5364 114.54 24.2882 115.59 24.37C116.766 24.2897 117.93 24.6457 118.86 25.37C119.161 25.6977 119.389 26.0856 119.528 26.5079C119.668 26.9303 119.716 27.3775 119.67 27.82C119.67 27.93 119.67 28.18 119.67 28.57C118.001 29.0482 116.29 29.363 114.56 29.51ZM119.67 31.81C119.719 32.7827 119.559 33.7546 119.2 34.66C118.802 35.5132 118.139 36.2148 117.31 36.66C116.411 37.1551 115.396 37.4035 114.37 37.38C113.459 37.4453 112.555 37.175 111.83 36.62C111.554 36.3899 111.333 36.1005 111.184 35.7733C111.035 35.446 110.962 35.0894 110.97 34.73C110.968 34.2432 111.112 33.7669 111.383 33.3623C111.653 32.9578 112.039 32.6436 112.49 32.46C113.3 32.1642 114.143 31.9694 115 31.88C116.596 31.7034 118.166 31.3444 119.68 30.81L119.67 31.81Z" fill="white"/>
<path fill-rule="evenodd" clip-rule="evenodd" d="M127.46 34.28C127.39 35.4215 127.508 36.5668 127.81 37.67C128.045 38.235 128.465 38.7037 129 39C129.75 39.3715 130.584 39.5437 131.42 39.5C132.144 39.487 132.864 39.3998 133.57 39.24L133.18 36.71C132.767 36.7801 132.349 36.8202 131.93 36.83C131.584 36.8526 131.238 36.78 130.93 36.62C130.712 36.4936 130.54 36.3009 130.44 36.07C130.308 35.5543 130.258 35.0213 130.29 34.49V24.56H133.16V22.35H130.29V16.45L127.43 18.17V22.35H125.32V24.56H127.43L127.46 34.28Z" fill="white"/>
<path fill-rule="evenodd" clip-rule="evenodd" d="M146.32 15.81H142.55L140.47 20.27H142.84L146.32 15.81Z" fill="white"/>
<path fill-rule="evenodd" clip-rule="evenodd" d="M142.85 39.59C144.273 39.6134 145.679 39.2689 146.93 38.59C148.142 37.925 149.131 36.9159 149.77 35.69C150.504 34.09 150.847 32.3385 150.77 30.58C150.835 29.4391 150.674 28.2966 150.294 27.2186C149.915 26.1406 149.325 25.1486 148.56 24.3C147.822 23.5381 146.933 22.9396 145.949 22.5434C144.966 22.1472 143.91 21.962 142.85 22C140.912 21.9431 139.023 22.6097 137.55 23.87C135.81 25.37 134.94 27.68 134.94 30.8C134.94 33.64 135.66 35.8 137.12 37.33C137.865 38.0853 138.759 38.6764 139.746 39.0656C140.733 39.4548 141.79 39.6334 142.85 39.59ZM139.28 26C139.721 25.4873 140.269 25.0781 140.886 24.8016C141.503 24.525 142.174 24.3879 142.85 24.4C143.522 24.3875 144.188 24.5245 144.8 24.8013C145.412 25.078 145.956 25.4875 146.39 26C147.432 27.3474 147.941 29.0312 147.82 30.73C147.96 32.4911 147.455 34.243 146.4 35.66C145.966 36.1768 145.422 36.5897 144.808 36.8683C144.194 37.147 143.524 37.2842 142.85 37.27C142.174 37.2842 141.503 37.148 140.885 36.8713C140.268 36.5946 139.72 36.1843 139.28 35.67C138.238 34.2775 137.737 32.5541 137.87 30.82C137.741 29.0956 138.242 27.3829 139.28 26Z" fill="white"/>
<path d="M156.9 15.94H154.04V39.23H156.9V15.94Z" fill="white"/>
<path d="M164.19 22.35H161.33V39.23H164.19V22.35Z" fill="white"/>
<path d="M164.19 15.94H161.33V19.19H164.19V15.94Z" fill="white"/>
<path fill-rule="evenodd" clip-rule="evenodd" d="M175.37 39.59C177.056 39.6428 178.702 39.0772 180 38C181.304 36.8314 182.14 35.2286 182.35 33.49L179.56 33.1C179.465 34.2896 178.956 35.408 178.12 36.26C177.347 36.9431 176.341 37.3014 175.31 37.26C174.664 37.2802 174.022 37.1529 173.433 36.8877C172.844 36.6226 172.323 36.2267 171.91 35.73C171.04 34.73 170.61 33.06 170.61 30.79C170.61 28.52 171.06 26.93 171.96 25.9C172.392 25.3931 172.933 24.9905 173.543 24.7221C174.152 24.4537 174.814 24.3265 175.48 24.35C176.371 24.331 177.238 24.6367 177.92 25.21C178.653 25.8892 179.148 26.7871 179.33 27.77L182.09 27.35C181.858 25.8016 181.059 24.3943 179.85 23.4C178.568 22.4361 176.993 21.9418 175.39 22C173.993 21.9859 172.616 22.3302 171.39 23C170.156 23.6823 169.187 24.7602 168.64 26.06C168.004 27.5718 167.694 29.2005 167.73 30.84C167.574 33.1893 168.326 35.5088 169.83 37.32C170.539 38.0705 171.4 38.6612 172.355 39.0527C173.31 39.4441 174.338 39.6273 175.37 39.59Z" fill="white"/>
<path fill-rule="evenodd" clip-rule="evenodd" d="M190.5 29.51C189.642 29.5993 188.79 29.7429 187.95 29.94C187.214 30.1316 186.517 30.4496 185.89 30.88C185.274 31.2973 184.766 31.8563 184.41 32.51C184.036 33.2076 183.843 33.9883 183.85 34.78C183.83 35.4291 183.954 36.0746 184.211 36.6708C184.469 37.267 184.854 37.7993 185.34 38.23C186.543 39.2084 188.073 39.6944 189.62 39.59C190.699 39.5972 191.77 39.4075 192.78 39.03C193.902 38.5682 194.94 37.9227 195.85 37.12C195.914 37.8492 196.1 38.5625 196.4 39.23H199.4C199.063 38.6051 198.83 37.9296 198.71 37.23C198.543 35.5689 198.483 33.8988 198.53 32.23V28.36C198.556 27.4807 198.506 26.6007 198.38 25.73C198.244 25.0179 197.939 24.349 197.49 23.78C196.947 23.1849 196.258 22.7434 195.49 22.5C194.364 22.1324 193.184 21.9632 192 22C190.699 21.9778 189.404 22.1773 188.17 22.59C187.18 22.9115 186.3 23.5039 185.63 24.3C184.998 25.1598 184.567 26.151 184.37 27.2L187.17 27.6C187.341 26.6199 187.846 25.7293 188.6 25.08C189.502 24.5364 190.55 24.2882 191.6 24.37C192.776 24.2906 193.94 24.6466 194.87 25.37C195.171 25.6977 195.399 26.0856 195.538 26.5079C195.678 26.9303 195.726 27.3775 195.68 27.82C195.68 27.93 195.68 28.18 195.68 28.57C193.989 29.0535 192.253 29.3684 190.5 29.51ZM195.6 31.81C195.651 32.7819 195.495 33.7536 195.14 34.66C194.742 35.5132 194.079 36.2148 193.25 36.66C192.351 37.1551 191.336 37.4035 190.31 37.38C189.399 37.4472 188.495 37.1767 187.77 36.62C187.492 36.3904 187.27 36.1014 187.12 35.7742C186.969 35.447 186.894 35.0901 186.9 34.73C186.897 34.2504 187.036 33.7807 187.3 33.38C187.572 32.9636 187.967 32.6421 188.43 32.46C189.236 32.1639 190.076 31.9691 190.93 31.88C192.529 31.7042 194.103 31.3451 195.62 30.81L195.6 31.81Z" fill="white"/>
<path fill-rule="evenodd" clip-rule="evenodd" d="M93.36 56.79C92.6789 57.3468 91.8193 57.6381 90.94 57.61C90.1674 57.615 89.4088 57.4037 88.75 57C88.057 56.5802 87.5306 55.9337 87.26 55.17C86.9234 54.2479 86.7606 53.2714 86.78 52.29C86.7811 51.4433 86.9196 50.6024 87.19 49.8C87.4388 49.0292 87.9298 48.3593 88.59 47.89C89.3233 47.3945 90.1956 47.1458 91.08 47.18C91.8483 47.1448 92.606 47.3703 93.23 47.82C93.8567 48.3389 94.3102 49.0366 94.53 49.82L96.21 49.43C95.9261 48.3231 95.278 47.3438 94.37 46.65C93.4235 45.966 92.2773 45.6144 91.11 45.65C90.017 45.6372 88.9391 45.9058 87.98 46.43C87.0299 46.9505 86.262 47.7498 85.78 48.72C85.2335 49.8324 84.9658 51.0611 85 52.3C84.991 53.4884 85.2258 54.666 85.69 55.76C86.0826 56.7692 86.7822 57.6297 87.69 58.22C88.7127 58.8285 89.8912 59.124 91.08 59.07C92.3058 59.1156 93.51 58.7377 94.49 58C95.4779 57.1774 96.161 56.0471 96.43 54.79L94.71 54.35C94.545 55.2912 94.0698 56.1502 93.36 56.79Z" fill="white"/>
<path fill-rule="evenodd" clip-rule="evenodd" d="M102.18 49.29C101.588 49.2651 100.997 49.3684 100.448 49.5927C99.8992 49.8171 99.4053 50.1573 99 50.59C98.1436 51.6104 97.7106 52.9202 97.79 54.25C97.7126 55.5431 98.1472 56.8148 99 57.79C99.4226 58.2196 99.932 58.5543 100.494 58.7715C101.056 58.9888 101.658 59.0837 102.26 59.05C103.213 59.0901 104.152 58.8122 104.93 58.26C105.659 57.6962 106.172 56.8979 106.38 56L104.74 55.78C104.557 56.36 104.21 56.8743 103.74 57.26C103.308 57.5659 102.789 57.7238 102.26 57.71C101.888 57.726 101.517 57.662 101.172 57.5223C100.827 57.3825 100.516 57.1703 100.26 56.9C99.6936 56.244 99.3814 55.4066 99.38 54.54H106.38C106.38 54.36 106.38 54.21 106.38 54.12C106.46 52.8118 106.034 51.523 105.19 50.52C104.802 50.1157 104.334 49.7972 103.816 49.5853C103.297 49.3735 102.74 49.2728 102.18 49.29ZM99.54 53.29C99.5422 52.5419 99.8365 51.8243 100.36 51.29C100.6 51.0512 100.886 50.8634 101.2 50.7379C101.515 50.6125 101.852 50.552 102.19 50.56C102.571 50.5471 102.95 50.6225 103.297 50.7804C103.644 50.9382 103.949 51.1743 104.19 51.47C104.555 51.9942 104.763 52.6117 104.79 53.25L99.54 53.29Z" fill="white"/>
<path fill-rule="evenodd" clip-rule="evenodd" d="M115.41 50.39C115.136 50.0319 114.769 49.7553 114.35 49.59C113.856 49.3851 113.325 49.283 112.79 49.29C112.201 49.2595 111.614 49.3837 111.088 49.6504C110.561 49.9171 110.114 50.3168 109.79 50.81V49.48H108.36V58.86H110V53.75C109.944 53.3149 109.981 52.8729 110.107 52.4527C110.232 52.0324 110.445 51.6432 110.73 51.31C111.209 50.8782 111.835 50.6457 112.48 50.66C112.865 50.6536 113.245 50.7503 113.58 50.94C113.876 51.12 114.107 51.3897 114.24 51.71C114.386 52.1822 114.447 52.6765 114.42 53.17V58.86H116V53.11C116.017 52.592 115.99 52.0735 115.92 51.56C115.836 51.1379 115.662 50.7389 115.41 50.39Z" fill="white"/>
<path fill-rule="evenodd" clip-rule="evenodd" d="M121.19 57.51C121.002 57.5216 120.815 57.48 120.65 57.39C120.527 57.3204 120.432 57.211 120.38 57.08C120.3 56.7939 120.27 56.4963 120.29 56.2V50.71H121.88V49.48H120.29V46.22L118.71 47.16V49.48H117.53V50.71H118.71V56.11C118.667 56.7462 118.731 57.3851 118.9 58C119.037 58.307 119.268 58.5626 119.56 58.73C119.979 58.9259 120.438 59.0184 120.9 59C121.304 58.9946 121.707 58.9443 122.1 58.85L121.88 57.45C121.652 57.4849 121.421 57.505 121.19 57.51Z" fill="white"/>
<path fill-rule="evenodd" clip-rule="evenodd" d="M125.87 49.61C125.449 49.9725 125.109 50.4187 124.87 50.92V49.48H123.45V58.86H125V54C124.99 53.3735 125.077 52.7493 125.26 52.15C125.36 51.805 125.566 51.5004 125.85 51.28C126.112 51.0733 126.437 50.9637 126.77 50.97C127.178 50.976 127.577 51.0861 127.93 51.29L128.5 49.83C128.011 49.5135 127.443 49.3403 126.86 49.33C126.509 49.3195 126.163 49.4173 125.87 49.61Z" fill="white"/>
<path fill-rule="evenodd" clip-rule="evenodd" d="M133.27 49.29C132.18 49.2371 131.11 49.5939 130.27 50.29C129.759 50.7846 129.363 51.3864 129.113 52.0522C128.862 52.7179 128.762 53.431 128.82 54.14C128.726 55.4626 129.161 56.7683 130.03 57.77C130.445 58.1898 130.943 58.518 131.492 58.7333C132.042 58.9486 132.63 59.0463 133.22 59.02C134.01 59.0308 134.789 58.8343 135.48 58.45C136.156 58.0878 136.706 57.5301 137.06 56.85C137.461 55.959 137.646 54.986 137.6 54.01C137.638 53.3772 137.548 52.7433 137.337 52.1456C137.126 51.548 136.797 50.9986 136.37 50.53C135.966 50.1214 135.483 49.8004 134.949 49.587C134.416 49.3737 133.844 49.2726 133.27 49.29ZM135.27 56.86C135.024 57.1481 134.717 57.3775 134.371 57.5315C134.025 57.6855 133.649 57.7602 133.27 57.75C132.893 57.7579 132.518 57.6832 132.173 57.5312C131.827 57.3792 131.519 57.1535 131.27 56.87C130.694 56.0966 130.417 55.1414 130.49 54.18C130.417 53.2186 130.694 52.2634 131.27 51.49C131.517 51.2043 131.825 50.9771 132.171 50.8249C132.517 50.6727 132.892 50.5993 133.27 50.61C133.649 50.5969 134.026 50.6703 134.373 50.8245C134.719 50.9787 135.026 51.2097 135.27 51.5C135.848 52.2458 136.129 53.1791 136.06 54.12C136.127 55.1025 135.836 56.0759 135.24 56.86H135.27Z" fill="white"/>
<path fill-rule="evenodd" clip-rule="evenodd" d="M154.47 53.39C154.602 54.55 154.318 55.7191 153.67 56.69C153.306 57.0049 152.881 57.2426 152.422 57.3887C151.963 57.5348 151.479 57.5863 151 57.54C150.35 57.5613 149.705 57.4131 149.13 57.11C148.642 56.8383 148.267 56.4025 148.07 55.88C147.819 55.0751 147.71 54.2323 147.75 53.39V45.93H146V53.4C145.955 54.5014 146.121 55.6013 146.49 56.64C146.808 57.42 147.393 58.0615 148.14 58.45C149.071 58.9081 150.104 59.1214 151.14 59.07C152.187 59.1171 153.226 58.8712 154.14 58.36C154.861 57.9286 155.42 57.2713 155.73 56.49C156.058 55.4941 156.207 54.4479 156.17 53.4V45.93H154.45L154.47 53.39Z" fill="white"/>
<path fill-rule="evenodd" clip-rule="evenodd" d="M165.87 50.39C165.592 50.0316 165.222 49.7551 164.8 49.59C164.309 49.3862 163.782 49.2841 163.25 49.29C162.661 49.2605 162.074 49.3852 161.548 49.6517C161.022 49.9183 160.575 50.3176 160.25 50.81V49.48H158.82V58.86H160.41V53.75C160.356 53.3142 160.394 52.8718 160.521 52.4515C160.649 52.0312 160.863 51.6423 161.15 51.31C161.626 50.8788 162.248 50.6462 162.89 50.66C163.278 50.6528 163.662 50.7494 164 50.94C164.294 51.1225 164.525 51.3915 164.66 51.71C164.801 52.1833 164.862 52.6767 164.84 53.17V58.86H166.43V53.11C166.445 52.5917 166.415 52.0731 166.34 51.56C166.268 51.1411 166.108 50.7423 165.87 50.39Z" fill="white"/>
<path d="M170.48 45.93H168.89V47.74H170.48V45.93Z" fill="white"/>
<path d="M170.48 49.48H168.89V58.85H170.48V49.48Z" fill="white"/>
<path fill-rule="evenodd" clip-rule="evenodd" d="M176.82 55.21C176.57 55.9 176.37 56.49 176.24 56.98C176.05 56.33 175.85 55.71 175.63 55.1L173.63 49.48H171.93L175.47 58.86H177L180.55 49.48H178.92L176.82 55.21Z" fill="white"/>
<path fill-rule="evenodd" clip-rule="evenodd" d="M185.78 49.29C185.191 49.2674 184.604 49.3717 184.059 49.596C183.513 49.8204 183.023 50.1593 182.62 50.59C181.76 51.6084 181.326 52.9196 181.41 54.25C181.33 55.5418 181.761 56.8133 182.61 57.79C183.032 58.2178 183.54 58.5513 184.1 58.7685C184.66 58.9857 185.26 59.0816 185.86 59.05C186.816 59.0916 187.759 58.8136 188.54 58.26C189.273 57.6979 189.789 56.8993 190 56L188.36 55.78C188.174 56.3583 187.827 56.8716 187.36 57.26C186.925 57.5673 186.402 57.7252 185.87 57.71C185.498 57.726 185.127 57.662 184.782 57.5223C184.437 57.3825 184.126 57.1703 183.87 56.9C183.3 56.2464 182.987 55.4075 182.99 54.54H189.99C189.99 54.36 189.99 54.21 189.99 54.12C190.072 52.8131 189.65 51.5245 188.81 50.52C188.42 50.1131 187.949 49.7932 187.426 49.5812C186.904 49.3692 186.343 49.27 185.78 49.29ZM183.12 53.29C183.135 52.5446 183.428 51.8316 183.94 51.29C184.182 51.0509 184.47 50.863 184.786 50.7376C185.102 50.6122 185.44 50.5518 185.78 50.56C186.161 50.5455 186.541 50.6202 186.888 50.7782C187.235 50.9362 187.54 51.1731 187.78 51.47C188.15 51.9911 188.355 52.6111 188.37 53.25L183.12 53.29Z" fill="white"/>
<path fill-rule="evenodd" clip-rule="evenodd" d="M194.4 49.61C193.973 49.9662 193.631 50.4139 193.4 50.92V49.48H192V58.86H193.59V54C193.585 53.3739 193.673 52.7505 193.85 52.15C193.95 51.8049 194.156 51.5004 194.44 51.28C194.705 51.0733 195.034 50.9639 195.37 50.97C195.778 50.976 196.177 51.0861 196.53 51.29L197.09 49.83C196.604 49.5138 196.039 49.3405 195.46 49.33C195.086 49.3045 194.713 49.4029 194.4 49.61Z" fill="white"/>
<path fill-rule="evenodd" clip-rule="evenodd" d="M203.72 53.91C202.952 53.6202 202.167 53.3764 201.37 53.18C200.59 52.97 200.12 52.83 199.96 52.77C199.726 52.6857 199.519 52.5408 199.36 52.35C199.232 52.1917 199.165 51.9933 199.17 51.79C199.171 51.6218 199.215 51.4566 199.297 51.3097C199.379 51.1629 199.497 51.0392 199.64 50.95C200.105 50.6671 200.648 50.5409 201.19 50.59C201.7 50.5548 202.206 50.6999 202.62 51C202.966 51.2841 203.186 51.6942 203.23 52.14L204.78 51.92C204.715 51.4014 204.53 50.9051 204.24 50.47C203.922 50.0704 203.495 49.7716 203.01 49.61C202.392 49.3831 201.738 49.2746 201.08 49.29C200.613 49.2844 200.148 49.3485 199.7 49.48C199.343 49.5748 199.004 49.7304 198.7 49.94C198.374 50.168 198.107 50.4695 197.92 50.82C197.719 51.1922 197.62 51.6103 197.63 52.033C197.641 52.4556 197.761 52.8682 197.98 53.23C198.217 53.6197 198.565 53.9296 198.98 54.12C199.762 54.4455 200.572 54.6999 201.4 54.88C201.96 54.9944 202.504 55.1757 203.02 55.42C203.166 55.5089 203.287 55.6336 203.371 55.7825C203.455 55.9313 203.499 56.0991 203.5 56.27C203.491 56.4656 203.439 56.6567 203.348 56.8297C203.256 57.0026 203.127 57.153 202.97 57.27C202.494 57.6012 201.918 57.7568 201.34 57.71C200.735 57.7504 200.136 57.573 199.65 57.21C199.228 56.8421 198.964 56.3269 198.91 55.77L197.34 56.02C197.45 56.8935 197.886 57.6934 198.56 58.26C199.381 58.8126 200.363 59.0765 201.35 59.01C202.035 59.0267 202.716 58.9007 203.35 58.64C203.894 58.4159 204.36 58.0368 204.69 57.55C204.993 57.1119 205.157 56.5926 205.16 56.06C205.177 55.5799 205.041 55.1068 204.77 54.71C204.504 54.3481 204.14 54.0704 203.72 53.91Z" fill="white"/>
<path d="M208.61 45.93H207.02V47.74H208.61V45.93Z" fill="white"/>
<path d="M208.61 49.48H207.02V58.85H208.61V49.48Z" fill="white"/>
<path fill-rule="evenodd" clip-rule="evenodd" d="M213.79 57.51C213.602 57.5216 213.415 57.48 213.25 57.39C213.133 57.3142 213.039 57.2068 212.98 57.08C212.9 56.7939 212.87 56.4963 212.89 56.2V50.71H214.49V49.48H212.89V46.22L211.31 47.16V49.48H210.14V50.71H211.31V56.11C211.267 56.7462 211.331 57.3851 211.5 58C211.639 58.3093 211.874 58.5654 212.17 58.73C212.588 58.927 213.048 59.0196 213.51 59C213.911 58.9934 214.31 58.9431 214.7 58.85L214.49 57.45C214.258 57.4845 214.024 57.5046 213.79 57.51Z" fill="white"/>
<path fill-rule="evenodd" clip-rule="evenodd" d="M221.96 45.85H219.87L218.71 48.33H220.03L221.96 45.85Z" fill="white"/>
<path fill-rule="evenodd" clip-rule="evenodd" d="M223.66 54.93V52.82C223.672 52.332 223.645 51.8438 223.58 51.36C223.51 50.941 223.322 50.5505 223.039 50.2338C222.756 49.917 222.388 49.6869 221.98 49.57C221.335 49.3582 220.658 49.2633 219.98 49.29C219.256 49.2762 218.536 49.3879 217.85 49.62C217.304 49.8 216.816 50.1249 216.44 50.56C216.089 51.0412 215.85 51.5946 215.74 52.18L217.3 52.39C217.393 51.8486 217.672 51.3568 218.09 51C218.59 50.7018 219.17 50.5656 219.75 50.61C220.397 50.5643 221.04 50.7523 221.56 51.14C221.727 51.3218 221.854 51.5371 221.931 51.7715C222.009 52.006 222.036 52.2544 222.01 52.5C222.01 52.56 222.01 52.7 222.01 52.92C221.084 53.1947 220.132 53.3756 219.17 53.46C218.696 53.5127 218.225 53.5929 217.76 53.7C217.355 53.8124 216.97 53.9879 216.62 54.22C216.277 54.4553 215.993 54.7668 215.79 55.13C215.581 55.5133 215.475 55.9437 215.48 56.38C215.47 56.7412 215.539 57.1001 215.683 57.4318C215.826 57.7634 216.04 58.0597 216.31 58.3C216.979 58.8444 217.83 59.1127 218.69 59.05C219.287 59.0595 219.88 58.9577 220.44 58.75C221.066 58.4974 221.642 58.135 222.14 57.68C222.176 58.088 222.281 58.4869 222.45 58.86H224.11C223.921 58.5071 223.793 58.1252 223.73 57.73C223.648 56.7991 223.625 55.8639 223.66 54.93ZM222 54.74C222.027 55.2792 221.938 55.8178 221.74 56.32C221.517 56.7871 221.148 57.1694 220.69 57.41C220.191 57.6846 219.629 57.8226 219.06 57.81C218.555 57.8464 218.053 57.6971 217.65 57.39C217.503 57.2672 217.384 57.1145 217.302 56.942C217.219 56.7695 217.174 56.5813 217.17 56.39C217.169 56.1239 217.245 55.8633 217.39 55.64C217.547 55.411 217.765 55.2308 218.02 55.12C218.47 54.964 218.936 54.86 219.41 54.81C220.296 54.711 221.168 54.5131 222.01 54.22L222 54.74Z" fill="white"/>
<path fill-rule="evenodd" clip-rule="evenodd" d="M228.52 49.61C228.093 49.9662 227.751 50.4139 227.52 50.92V49.48H226.09V58.86H227.68V54C227.675 53.3739 227.763 52.7505 227.94 52.15C228.043 51.8067 228.249 51.5031 228.53 51.28C228.796 51.0747 229.124 50.9655 229.46 50.97C229.864 50.9759 230.261 51.0861 230.61 51.29L231.18 49.83C230.695 49.5123 230.13 49.3389 229.55 49.33C229.186 49.3111 228.825 49.4092 228.52 49.61Z" fill="white"/>
<path d="M233.7 49.48H232.11V58.85H233.7V49.48Z" fill="white"/>
<path d="M233.7 45.93H232.11V47.74H233.7V45.93Z" fill="white"/>
<path fill-rule="evenodd" clip-rule="evenodd" d="M239.92 49.29C238.85 49.2493 237.803 49.6055 236.98 50.29C236.469 50.7846 236.073 51.3864 235.823 52.0522C235.572 52.7179 235.472 53.431 235.53 54.14C235.436 55.4626 235.871 56.7683 236.74 57.77C237.153 58.1891 237.65 58.5168 238.197 58.7321C238.745 58.9474 239.332 59.0455 239.92 59.02C240.71 59.0322 241.49 58.8356 242.18 58.45C242.86 58.0909 243.415 57.5327 243.77 56.85C244.171 55.959 244.356 54.986 244.31 54.01C244.348 53.3772 244.258 52.7433 244.047 52.1456C243.836 51.548 243.507 50.9986 243.08 50.53C242.669 50.1143 242.175 49.7892 241.631 49.5757C241.087 49.3621 240.504 49.2648 239.92 49.29ZM241.92 56.86C241.675 57.1492 241.368 57.3794 241.022 57.5335C240.675 57.6876 240.299 57.7616 239.92 57.75C239.542 57.7607 239.167 57.6873 238.821 57.5351C238.475 57.3829 238.167 57.1557 237.92 56.87C237.341 56.098 237.06 55.1426 237.13 54.18C237.054 53.2167 237.335 52.259 237.92 51.49C238.169 51.2122 238.473 50.9899 238.813 50.8377C239.154 50.6855 239.522 50.6069 239.895 50.6069C240.268 50.6069 240.636 50.6855 240.977 50.8377C241.317 50.9899 241.621 51.2122 241.87 51.49C242.448 52.2358 242.729 53.1691 242.66 54.11C242.75 55.0902 242.476 56.0693 241.89 56.86H241.92Z" fill="white"/>
<path fill-rule="evenodd" clip-rule="evenodd" d="M208.85 38.65C210.533 39.3234 212.338 39.6401 214.15 39.58C215.692 39.6068 217.221 39.2962 218.63 38.67C219.875 38.1286 220.937 37.2398 221.69 36.11C222.382 35.0702 222.751 33.849 222.75 32.6C222.758 31.4241 222.41 30.2735 221.75 29.3C220.986 28.2476 219.949 27.4245 218.75 26.92C217.076 26.2759 215.35 25.7774 213.59 25.43C211.097 24.87 209.55 24.3167 208.95 23.77C208.655 23.5174 208.421 23.2024 208.264 22.8477C208.106 22.4931 208.03 22.1079 208.04 21.72C208.04 21.2338 208.159 20.7549 208.385 20.3246C208.612 19.8943 208.939 19.5255 209.34 19.25C210.543 18.4715 211.973 18.1194 213.4 18.25C214.822 18.1612 216.231 18.5559 217.4 19.37C217.877 19.7924 218.266 20.3049 218.544 20.8782C218.822 21.4514 218.984 22.0739 219.02 22.71L222.02 22.49C221.975 21.1867 221.581 19.9194 220.88 18.82C220.147 17.7221 219.102 16.8688 217.88 16.37C216.432 15.7857 214.881 15.5 213.32 15.53C211.854 15.5107 210.4 15.7826 209.04 16.33C207.848 16.783 206.824 17.5933 206.11 18.65C205.461 19.6285 205.113 20.7758 205.11 21.95C205.095 22.9759 205.38 23.9838 205.93 24.85C206.55 25.7751 207.406 26.5175 208.41 27C209.846 27.6572 211.352 28.1471 212.9 28.46C214.302 28.7643 215.687 29.1414 217.05 29.59C217.861 29.8527 218.587 30.3294 219.15 30.97C219.574 31.5152 219.796 32.1898 219.78 32.88C219.781 33.6003 219.549 34.3016 219.12 34.88C218.608 35.542 217.912 36.0392 217.12 36.31C216.121 36.6754 215.063 36.8518 214 36.83C212.772 36.8527 211.552 36.6177 210.42 36.14C209.487 35.7713 208.678 35.1433 208.09 34.33C207.536 33.4689 207.193 32.4889 207.09 31.47L204.19 31.72C204.215 33.2076 204.655 34.6586 205.46 35.91C206.287 37.1447 207.469 38.0999 208.85 38.65Z" fill="white"/>
<path fill-rule="evenodd" clip-rule="evenodd" d="M225.28 21C224.318 22.9725 223.842 25.1461 223.89 27.34C223.878 29.4814 224.297 31.6033 225.12 33.58C225.839 35.3895 227.091 36.9379 228.71 38.02C230.558 39.1133 232.685 39.6449 234.83 39.55C237.052 39.612 239.228 38.9056 240.99 37.55C242.76 36.059 243.984 34.0223 244.47 31.76L241.39 31C241.123 32.7122 240.28 34.282 239 35.45C237.768 36.4609 236.213 36.9935 234.62 36.95C233.209 36.9637 231.822 36.579 230.62 35.84C229.374 35.0786 228.424 33.9144 227.93 32.54C227.327 30.8775 227.036 29.1181 227.07 27.35C227.064 25.8291 227.315 24.318 227.81 22.88C228.248 21.4815 229.133 20.2657 230.33 19.42C231.651 18.53 233.218 18.0787 234.81 18.13C236.196 18.0776 237.56 18.4855 238.69 19.29C239.822 20.2609 240.628 21.5559 241 23L244 22.29C243.48 20.3007 242.312 18.5413 240.68 17.29C238.969 16.0673 236.902 15.4417 234.8 15.51C232.834 15.4958 230.897 15.9809 229.17 16.92C227.486 17.85 226.129 19.2741 225.28 21Z" fill="white"/>
<path d="M244.31 42.2H85.01V43.2H244.31V42.2Z" fill="white"/>
</g>
<defs>
<clipPath id="clip0_16_224">
<rect width="244.47" height="81.24" fill="white"/>
</clipPath>
</defs>
</svg>
